<mxfile host="65bd71144e">
    <diagram id="C5RBs43oDa-KdzZeNtuy" name="Page-1">
        <mxGraphModel dx="728" dy="354" grid="1" gridSize="10" guides="1" tooltips="1" connect="1" arrows="1" fold="1" page="1" pageScale="1" pageWidth="1000" pageHeight="1000" math="0" shadow="0">
            <root>
                <mxCell id="WIyWlLk6GJQsqaUBKTNV-0"/>
                <mxCell id="WIyWlLk6GJQsqaUBKTNV-1" parent="WIyWlLk6GJQsqaUBKTNV-0"/>
                <mxCell id="McWUHRjocxMPljA4yQ9H-2" value="StoreItem" style="swimlane;fontStyle=1;align=center;verticalAlign=top;childLayout=stackLayout;horizontal=1;startSize=26;horizontalStack=0;resizeParent=1;resizeParentMax=0;resizeLast=0;collapsible=1;marginBottom=0;" parent="WIyWlLk6GJQsqaUBKTNV-1" vertex="1">
                    <mxGeometry x="70" y="180" width="280" height="290" as="geometry"/>
                </mxCell>
                <mxCell id="McWUHRjocxMPljA4yQ9H-3" value="# name: String&#10;# price : double&#10;# description : String&#10;# keywords : ArrayList&lt;String&gt;&#10;# itemNum : int" style="text;strokeColor=none;fillColor=none;align=left;verticalAlign=top;spacingLeft=4;spacingRight=4;overflow=hidden;rotatable=0;points=[[0,0.5],[1,0.5]];portConstraint=eastwest;" parent="McWUHRjocxMPljA4yQ9H-2" vertex="1">
                    <mxGeometry y="26" width="280" height="74" as="geometry"/>
                </mxCell>
                <mxCell id="McWUHRjocxMPljA4yQ9H-4" value="" style="line;strokeWidth=1;fillColor=none;align=left;verticalAlign=middle;spacingTop=-1;spacingLeft=3;spacingRight=3;rotatable=0;labelPosition=right;points=[];portConstraint=eastwest;" parent="McWUHRjocxMPljA4yQ9H-2" vertex="1">
                    <mxGeometry y="100" width="280" height="8" as="geometry"/>
                </mxCell>
                <mxCell id="McWUHRjocxMPljA4yQ9H-5" value="+ getName() : String&#10;+ getPrice() : double&#10;+ getDescription() : String&#10;+ getKeywords() : ArrayList&lt;String&gt;&#10;+ getItemNum() : int&#10;+ setName(String name) : void&#10;+ setPrice(double price) : void&#10;+ setDescription(String description) : void&#10;+ setKeywords(ArrayList&lt;String&gt; keywords) : void&#10;+ setItemNum(int itemNum) : void&#10;+ Calc() : double&#10;+ GetData() : String" style="text;strokeColor=none;fillColor=none;align=left;verticalAlign=top;spacingLeft=4;spacingRight=4;overflow=hidden;rotatable=0;points=[[0,0.5],[1,0.5]];portConstraint=eastwest;" parent="McWUHRjocxMPljA4yQ9H-2" vertex="1">
                    <mxGeometry y="108" width="280" height="182" as="geometry"/>
                </mxCell>
                <mxCell id="McWUHRjocxMPljA4yQ9H-38" value="" style="edgeStyle=orthogonalEdgeStyle;rounded=0;orthogonalLoop=1;jettySize=auto;html=1;" parent="WIyWlLk6GJQsqaUBKTNV-1" source="McWUHRjocxMPljA4yQ9H-8" target="McWUHRjocxMPljA4yQ9H-33" edge="1">
                    <mxGeometry relative="1" as="geometry">
                        <Array as="points">
                            <mxPoint x="100" y="570"/>
                        </Array>
                    </mxGeometry>
                </mxCell>
                <mxCell id="McWUHRjocxMPljA4yQ9H-8" value="Basketball" style="swimlane;fontStyle=1;align=center;verticalAlign=top;childLayout=stackLayout;horizontal=1;startSize=26;horizontalStack=0;resizeParent=1;resizeParentMax=0;resizeLast=0;collapsible=1;marginBottom=0;" parent="WIyWlLk6GJQsqaUBKTNV-1" vertex="1">
                    <mxGeometry x="10" y="640" width="180" height="190" as="geometry"/>
                </mxCell>
                <mxCell id="McWUHRjocxMPljA4yQ9H-9" value="- section : int&#10;- seat : int&#10;- date : String" style="text;strokeColor=none;fillColor=none;align=left;verticalAlign=top;spacingLeft=4;spacingRight=4;overflow=hidden;rotatable=0;points=[[0,0.5],[1,0.5]];portConstraint=eastwest;" parent="McWUHRjocxMPljA4yQ9H-8" vertex="1">
                    <mxGeometry y="26" width="180" height="44" as="geometry"/>
                </mxCell>
                <mxCell id="McWUHRjocxMPljA4yQ9H-10" value="" style="line;strokeWidth=1;fillColor=none;align=left;verticalAlign=middle;spacingTop=-1;spacingLeft=3;spacingRight=3;rotatable=0;labelPosition=right;points=[];portConstraint=eastwest;" parent="McWUHRjocxMPljA4yQ9H-8" vertex="1">
                    <mxGeometry y="70" width="180" height="8" as="geometry"/>
                </mxCell>
                <mxCell id="McWUHRjocxMPljA4yQ9H-11" value="+ getSeat() : int&#10;+ getSection() : int&#10;+ getDate() : String&#10;+ setSeat(int seat) : void&#10;+ setSection(int section) : void&#10;+ setDate(String date) : void&#10;+ GetData() : StringÂ " style="text;strokeColor=none;fillColor=none;align=left;verticalAlign=top;spacingLeft=4;spacingRight=4;overflow=hidden;rotatable=0;points=[[0,0.5],[1,0.5]];portConstraint=eastwest;" parent="McWUHRjocxMPljA4yQ9H-8" vertex="1">
                    <mxGeometry y="78" width="180" height="112" as="geometry"/>
                </mxCell>
                <mxCell id="McWUHRjocxMPljA4yQ9H-39" value="" style="edgeStyle=orthogonalEdgeStyle;rounded=0;orthogonalLoop=1;jettySize=auto;html=1;" parent="WIyWlLk6GJQsqaUBKTNV-1" source="McWUHRjocxMPljA4yQ9H-13" target="McWUHRjocxMPljA4yQ9H-33" edge="1">
                    <mxGeometry relative="1" as="geometry">
                        <Array as="points">
                            <mxPoint x="330" y="630"/>
                            <mxPoint x="330" y="630"/>
                        </Array>
                    </mxGeometry>
                </mxCell>
                <mxCell id="McWUHRjocxMPljA4yQ9H-13" value="Book" style="swimlane;fontStyle=1;align=center;verticalAlign=top;childLayout=stackLayout;horizontal=1;startSize=26;horizontalStack=0;resizeParent=1;resizeParentMax=0;resizeLast=0;collapsible=1;marginBottom=0;" parent="WIyWlLk6GJQsqaUBKTNV-1" vertex="1">
                    <mxGeometry x="210" y="640" width="180" height="138" as="geometry"/>
                </mxCell>
                <mxCell id="McWUHRjocxMPljA4yQ9H-14" value="# author : String&#10;# cover : String&#10;" style="text;strokeColor=none;fillColor=none;align=left;verticalAlign=top;spacingLeft=4;spacingRight=4;overflow=hidden;rotatable=0;points=[[0,0.5],[1,0.5]];portConstraint=eastwest;" parent="McWUHRjocxMPljA4yQ9H-13" vertex="1">
                    <mxGeometry y="26" width="180" height="34" as="geometry"/>
                </mxCell>
                <mxCell id="McWUHRjocxMPljA4yQ9H-15" value="" style="line;strokeWidth=1;fillColor=none;align=left;verticalAlign=middle;spacingTop=-1;spacingLeft=3;spacingRight=3;rotatable=0;labelPosition=right;points=[];portConstraint=eastwest;" parent="McWUHRjocxMPljA4yQ9H-13" vertex="1">
                    <mxGeometry y="60" width="180" height="8" as="geometry"/>
                </mxCell>
                <mxCell id="McWUHRjocxMPljA4yQ9H-16" value="+ getAuthor() : String&#10;+ getCover() : String&#10;+ setAuthor(String author) : void&#10;+ setCover(String cover) : void" style="text;strokeColor=none;fillColor=none;align=left;verticalAlign=top;spacingLeft=4;spacingRight=4;overflow=hidden;rotatable=0;points=[[0,0.5],[1,0.5]];portConstraint=eastwest;" parent="McWUHRjocxMPljA4yQ9H-13" vertex="1">
                    <mxGeometry y="68" width="180" height="70" as="geometry"/>
                </mxCell>
                <mxCell id="McWUHRjocxMPljA4yQ9H-124" style="edgeStyle=orthogonalEdgeStyle;rounded=0;orthogonalLoop=1;jettySize=auto;html=1;entryX=1;entryY=0.5;entryDx=0;entryDy=0;" parent="WIyWlLk6GJQsqaUBKTNV-1" source="McWUHRjocxMPljA4yQ9H-18" target="McWUHRjocxMPljA4yQ9H-33" edge="1">
                    <mxGeometry relative="1" as="geometry"/>
                </mxCell>
                <mxCell id="McWUHRjocxMPljA4yQ9H-18" value="Computer" style="swimlane;fontStyle=1;align=center;verticalAlign=top;childLayout=stackLayout;horizontal=1;startSize=26;horizontalStack=0;resizeParent=1;resizeParentMax=0;resizeLast=0;collapsible=1;marginBottom=0;" parent="WIyWlLk6GJQsqaUBKTNV-1" vertex="1">
                    <mxGeometry x="400" y="640" width="280" height="190" as="geometry"/>
                </mxCell>
                <mxCell id="McWUHRjocxMPljA4yQ9H-19" value="- color : String&#10;- computerBrand : String&#10;- releaseDate : String" style="text;strokeColor=none;fillColor=none;align=left;verticalAlign=top;spacingLeft=4;spacingRight=4;overflow=hidden;rotatable=0;points=[[0,0.5],[1,0.5]];portConstraint=eastwest;" parent="McWUHRjocxMPljA4yQ9H-18" vertex="1">
                    <mxGeometry y="26" width="280" height="44" as="geometry"/>
                </mxCell>
                <mxCell id="McWUHRjocxMPljA4yQ9H-20" value="" style="line;strokeWidth=1;fillColor=none;align=left;verticalAlign=middle;spacingTop=-1;spacingLeft=3;spacingRight=3;rotatable=0;labelPosition=right;points=[];portConstraint=eastwest;" parent="McWUHRjocxMPljA4yQ9H-18" vertex="1">
                    <mxGeometry y="70" width="280" height="8" as="geometry"/>
                </mxCell>
                <mxCell id="McWUHRjocxMPljA4yQ9H-21" value="+ getColor() : String&#10;+ getComputerBrand() : String&#10;+ getReleaseDate() : String&#10;+ setColor(String color) : void&#10;+ setComputerBrand(String computerBrand) : void&#10;+ setReleaseDate(String releaseDate) : void&#10;+ GetData() : String&#10;&#10;" style="text;strokeColor=none;fillColor=none;align=left;verticalAlign=top;spacingLeft=4;spacingRight=4;overflow=hidden;rotatable=0;points=[[0,0.5],[1,0.5]];portConstraint=eastwest;" parent="McWUHRjocxMPljA4yQ9H-18" vertex="1">
                    <mxGeometry y="78" width="280" height="112" as="geometry"/>
                </mxCell>
                <mxCell id="McWUHRjocxMPljA4yQ9H-125" style="edgeStyle=orthogonalEdgeStyle;rounded=0;orthogonalLoop=1;jettySize=auto;html=1;" parent="WIyWlLk6GJQsqaUBKTNV-1" source="McWUHRjocxMPljA4yQ9H-24" target="McWUHRjocxMPljA4yQ9H-31" edge="1">
                    <mxGeometry relative="1" as="geometry"/>
                </mxCell>
                <mxCell id="McWUHRjocxMPljA4yQ9H-24" value="Powerplant" style="swimlane;fontStyle=1;align=center;verticalAlign=top;childLayout=stackLayout;horizontal=1;startSize=26;horizontalStack=0;resizeParent=1;resizeParentMax=0;resizeLast=0;collapsible=1;marginBottom=0;" parent="WIyWlLk6GJQsqaUBKTNV-1" vertex="1">
                    <mxGeometry x="560" y="570" width="160" height="60" as="geometry"/>
                </mxCell>
                <mxCell id="McWUHRjocxMPljA4yQ9H-26" value="" style="line;strokeWidth=1;fillColor=none;align=left;verticalAlign=middle;spacingTop=-1;spacingLeft=3;spacingRight=3;rotatable=0;labelPosition=right;points=[];portConstraint=eastwest;" parent="McWUHRjocxMPljA4yQ9H-24" vertex="1">
                    <mxGeometry y="26" width="160" height="8" as="geometry"/>
                </mxCell>
                <mxCell id="McWUHRjocxMPljA4yQ9H-27" value="+ GetData() : String" style="text;strokeColor=none;fillColor=none;align=left;verticalAlign=top;spacingLeft=4;spacingRight=4;overflow=hidden;rotatable=0;points=[[0,0.5],[1,0.5]];portConstraint=eastwest;" parent="McWUHRjocxMPljA4yQ9H-24" vertex="1">
                    <mxGeometry y="34" width="160" height="26" as="geometry"/>
                </mxCell>
                <mxCell id="McWUHRjocxMPljA4yQ9H-36" value="" style="edgeStyle=orthogonalEdgeStyle;rounded=0;orthogonalLoop=1;jettySize=auto;html=1;" parent="WIyWlLk6GJQsqaUBKTNV-1" source="McWUHRjocxMPljA4yQ9H-30" target="McWUHRjocxMPljA4yQ9H-5" edge="1">
                    <mxGeometry relative="1" as="geometry">
                        <Array as="points">
                            <mxPoint x="250" y="490"/>
                            <mxPoint x="250" y="490"/>
                        </Array>
                    </mxGeometry>
                </mxCell>
                <mxCell id="McWUHRjocxMPljA4yQ9H-30" value="WeightItem" style="swimlane;fontStyle=1;align=center;verticalAlign=top;childLayout=stackLayout;horizontal=1;startSize=26;horizontalStack=0;resizeParent=1;resizeParentMax=0;resizeLast=0;collapsible=1;marginBottom=0;" parent="WIyWlLk6GJQsqaUBKTNV-1" vertex="1">
                    <mxGeometry x="210" y="510" width="190" height="100" as="geometry"/>
                </mxCell>
                <mxCell id="McWUHRjocxMPljA4yQ9H-31" value="# weight : double" style="text;strokeColor=none;fillColor=none;align=left;verticalAlign=top;spacingLeft=4;spacingRight=4;overflow=hidden;rotatable=0;points=[[0,0.5],[1,0.5]];portConstraint=eastwest;" parent="McWUHRjocxMPljA4yQ9H-30" vertex="1">
                    <mxGeometry y="26" width="190" height="26" as="geometry"/>
                </mxCell>
                <mxCell id="McWUHRjocxMPljA4yQ9H-32" value="" style="line;strokeWidth=1;fillColor=none;align=left;verticalAlign=middle;spacingTop=-1;spacingLeft=3;spacingRight=3;rotatable=0;labelPosition=right;points=[];portConstraint=eastwest;" parent="McWUHRjocxMPljA4yQ9H-30" vertex="1">
                    <mxGeometry y="52" width="190" height="8" as="geometry"/>
                </mxCell>
                <mxCell id="McWUHRjocxMPljA4yQ9H-33" value="+ getWeight() : double&#10;+ setWeight(double weight) : void" style="text;strokeColor=none;fillColor=none;align=left;verticalAlign=top;spacingLeft=4;spacingRight=4;overflow=hidden;rotatable=0;points=[[0,0.5],[1,0.5]];portConstraint=eastwest;" parent="McWUHRjocxMPljA4yQ9H-30" vertex="1">
                    <mxGeometry y="60" width="190" height="40" as="geometry"/>
                </mxCell>
                <mxCell id="McWUHRjocxMPljA4yQ9H-135" style="edgeStyle=orthogonalEdgeStyle;rounded=0;orthogonalLoop=1;jettySize=auto;html=1;entryX=0.331;entryY=0.989;entryDx=0;entryDy=0;entryPerimeter=0;" parent="WIyWlLk6GJQsqaUBKTNV-1" source="McWUHRjocxMPljA4yQ9H-52" target="McWUHRjocxMPljA4yQ9H-16" edge="1">
                    <mxGeometry relative="1" as="geometry">
                        <Array as="points">
                            <mxPoint x="240" y="819"/>
                            <mxPoint x="270" y="819"/>
                        </Array>
                    </mxGeometry>
                </mxCell>
                <mxCell id="McWUHRjocxMPljA4yQ9H-52" value="ComicBook" style="swimlane;fontStyle=1;align=center;verticalAlign=top;childLayout=stackLayout;horizontal=1;startSize=26;horizontalStack=0;resizeParent=1;resizeParentMax=0;resizeLast=0;collapsible=1;marginBottom=0;" parent="WIyWlLk6GJQsqaUBKTNV-1" vertex="1">
                    <mxGeometry x="90" y="860" width="170" height="110" as="geometry"/>
                </mxCell>
                <mxCell id="McWUHRjocxMPljA4yQ9H-53" value="# artist : String" style="text;strokeColor=none;fillColor=none;align=left;verticalAlign=top;spacingLeft=4;spacingRight=4;overflow=hidden;rotatable=0;points=[[0,0.5],[1,0.5]];portConstraint=eastwest;" parent="McWUHRjocxMPljA4yQ9H-52" vertex="1">
                    <mxGeometry y="26" width="170" height="26" as="geometry"/>
                </mxCell>
                <mxCell id="McWUHRjocxMPljA4yQ9H-54" value="" style="line;strokeWidth=1;fillColor=none;align=left;verticalAlign=middle;spacingTop=-1;spacingLeft=3;spacingRight=3;rotatable=0;labelPosition=right;points=[];portConstraint=eastwest;" parent="McWUHRjocxMPljA4yQ9H-52" vertex="1">
                    <mxGeometry y="52" width="170" height="8" as="geometry"/>
                </mxCell>
                <mxCell id="McWUHRjocxMPljA4yQ9H-55" value="+ getArtist() : String&#10;+ setArtist(String artist) : void&#10;+ GetData() : String" style="text;strokeColor=none;fillColor=none;align=left;verticalAlign=top;spacingLeft=4;spacingRight=4;overflow=hidden;rotatable=0;points=[[0,0.5],[1,0.5]];portConstraint=eastwest;" parent="McWUHRjocxMPljA4yQ9H-52" vertex="1">
                    <mxGeometry y="60" width="170" height="50" as="geometry"/>
                </mxCell>
                <mxCell id="McWUHRjocxMPljA4yQ9H-134" style="edgeStyle=orthogonalEdgeStyle;rounded=0;orthogonalLoop=1;jettySize=auto;html=1;entryX=0.706;entryY=1.007;entryDx=0;entryDy=0;entryPerimeter=0;" parent="WIyWlLk6GJQsqaUBKTNV-1" source="McWUHRjocxMPljA4yQ9H-58" target="McWUHRjocxMPljA4yQ9H-16" edge="1">
                    <mxGeometry relative="1" as="geometry">
                        <Array as="points">
                            <mxPoint x="337" y="860"/>
                            <mxPoint x="337" y="860"/>
                        </Array>
                    </mxGeometry>
                </mxCell>
                <mxCell id="McWUHRjocxMPljA4yQ9H-58" value="Textbook&#10;" style="swimlane;fontStyle=1;align=center;verticalAlign=top;childLayout=stackLayout;horizontal=1;startSize=26;horizontalStack=0;resizeParent=1;resizeParentMax=0;resizeLast=0;collapsible=1;marginBottom=0;" parent="WIyWlLk6GJQsqaUBKTNV-1" vertex="1">
                    <mxGeometry x="280" y="884" width="160" height="86" as="geometry"/>
                </mxCell>
                <mxCell id="McWUHRjocxMPljA4yQ9H-59" value="- authors : List&lt;String&gt;" style="text;strokeColor=none;fillColor=none;align=left;verticalAlign=top;spacingLeft=4;spacingRight=4;overflow=hidden;rotatable=0;points=[[0,0.5],[1,0.5]];portConstraint=eastwest;" parent="McWUHRjocxMPljA4yQ9H-58" vertex="1">
                    <mxGeometry y="26" width="160" height="26" as="geometry"/>
                </mxCell>
                <mxCell id="McWUHRjocxMPljA4yQ9H-60" value="" style="line;strokeWidth=1;fillColor=none;align=left;verticalAlign=middle;spacingTop=-1;spacingLeft=3;spacingRight=3;rotatable=0;labelPosition=right;points=[];portConstraint=eastwest;" parent="McWUHRjocxMPljA4yQ9H-58" vertex="1">
                    <mxGeometry y="52" width="160" height="8" as="geometry"/>
                </mxCell>
                <mxCell id="McWUHRjocxMPljA4yQ9H-61" value="+ GetData() : String" style="text;strokeColor=none;fillColor=none;align=left;verticalAlign=top;spacingLeft=4;spacingRight=4;overflow=hidden;rotatable=0;points=[[0,0.5],[1,0.5]];portConstraint=eastwest;" parent="McWUHRjocxMPljA4yQ9H-58" vertex="1">
                    <mxGeometry y="60" width="160" height="26" as="geometry"/>
                </mxCell>
                <mxCell id="McWUHRjocxMPljA4yQ9H-71" value="ThingsWithTheStuff" style="swimlane;fontStyle=1;align=center;verticalAlign=top;childLayout=stackLayout;horizontal=1;startSize=26;horizontalStack=0;resizeParent=1;resizeParentMax=0;resizeLast=0;collapsible=1;marginBottom=0;" parent="WIyWlLk6GJQsqaUBKTNV-1" vertex="1">
                    <mxGeometry x="710" y="170" width="200" height="90" as="geometry"/>
                </mxCell>
                <mxCell id="McWUHRjocxMPljA4yQ9H-73" value="" style="line;strokeWidth=1;fillColor=none;align=left;verticalAlign=middle;spacingTop=-1;spacingLeft=3;spacingRight=3;rotatable=0;labelPosition=right;points=[];portConstraint=eastwest;" parent="McWUHRjocxMPljA4yQ9H-71" vertex="1">
                    <mxGeometry y="26" width="200" height="8" as="geometry"/>
                </mxCell>
                <mxCell id="McWUHRjocxMPljA4yQ9H-74" value="+ GetData() : String&#10;+ getPrice() : double&#10;+ setPrice(double newPrice) : void" style="text;strokeColor=none;fillColor=none;align=left;verticalAlign=top;spacingLeft=4;spacingRight=4;overflow=hidden;rotatable=0;points=[[0,0.5],[1,0.5]];portConstraint=eastwest;" parent="McWUHRjocxMPljA4yQ9H-71" vertex="1">
                    <mxGeometry y="34" width="200" height="56" as="geometry"/>
                </mxCell>
                <mxCell id="McWUHRjocxMPljA4yQ9H-84" value="ITextFormatter" style="swimlane;fontStyle=1;align=center;verticalAlign=top;childLayout=stackLayout;horizontal=1;startSize=26;horizontalStack=0;resizeParent=1;resizeParentMax=0;resizeLast=0;collapsible=1;marginBottom=0;" parent="WIyWlLk6GJQsqaUBKTNV-1" vertex="1">
                    <mxGeometry x="440" y="140" width="200" height="94" as="geometry"/>
                </mxCell>
                <mxCell id="McWUHRjocxMPljA4yQ9H-86" value="" style="line;strokeWidth=1;fillColor=none;align=left;verticalAlign=middle;spacingTop=-1;spacingLeft=3;spacingRight=3;rotatable=0;labelPosition=right;points=[];portConstraint=eastwest;" parent="McWUHRjocxMPljA4yQ9H-84" vertex="1">
                    <mxGeometry y="26" width="200" height="8" as="geometry"/>
                </mxCell>
                <mxCell id="McWUHRjocxMPljA4yQ9H-87" value="+ GetData() : String&#10;+ getPrice() : double&#10;+ setPrice(double newPrice) : void" style="text;strokeColor=none;fillColor=none;align=left;verticalAlign=top;spacingLeft=4;spacingRight=4;overflow=hidden;rotatable=0;points=[[0,0.5],[1,0.5]];portConstraint=eastwest;" parent="McWUHRjocxMPljA4yQ9H-84" vertex="1">
                    <mxGeometry y="34" width="200" height="60" as="geometry"/>
                </mxCell>
                <mxCell id="McWUHRjocxMPljA4yQ9H-92" value="IAddTax" style="swimlane;fontStyle=1;align=center;verticalAlign=top;childLayout=stackLayout;horizontal=1;startSize=26;horizontalStack=0;resizeParent=1;resizeParentMax=0;resizeLast=0;collapsible=1;marginBottom=0;" parent="WIyWlLk6GJQsqaUBKTNV-1" vertex="1">
                    <mxGeometry x="540" y="318" width="260" height="60" as="geometry"/>
                </mxCell>
                <mxCell id="McWUHRjocxMPljA4yQ9H-94" value="" style="line;strokeWidth=1;fillColor=none;align=left;verticalAlign=middle;spacingTop=-1;spacingLeft=3;spacingRight=3;rotatable=0;labelPosition=right;points=[];portConstraint=eastwest;" parent="McWUHRjocxMPljA4yQ9H-92" vertex="1">
                    <mxGeometry y="26" width="260" height="8" as="geometry"/>
                </mxCell>
                <mxCell id="McWUHRjocxMPljA4yQ9H-95" value="+ AddTaxToItem(ITextFormatter item) : double" style="text;strokeColor=none;fillColor=none;align=left;verticalAlign=top;spacingLeft=4;spacingRight=4;overflow=hidden;rotatable=0;points=[[0,0.5],[1,0.5]];portConstraint=eastwest;" parent="McWUHRjocxMPljA4yQ9H-92" vertex="1">
                    <mxGeometry y="34" width="260" height="26" as="geometry"/>
                </mxCell>
                <mxCell id="McWUHRjocxMPljA4yQ9H-130" value="" style="edgeStyle=orthogonalEdgeStyle;rounded=0;orthogonalLoop=1;jettySize=auto;html=1;" parent="WIyWlLk6GJQsqaUBKTNV-1" source="McWUHRjocxMPljA4yQ9H-100" target="McWUHRjocxMPljA4yQ9H-95" edge="1">
                    <mxGeometry relative="1" as="geometry">
                        <Array as="points">
                            <mxPoint x="520" y="365"/>
                        </Array>
                    </mxGeometry>
                </mxCell>
                <mxCell id="McWUHRjocxMPljA4yQ9H-100" value="RateTax" style="swimlane;fontStyle=1;align=center;verticalAlign=top;childLayout=stackLayout;horizontal=1;startSize=26;horizontalStack=0;resizeParent=1;resizeParentMax=0;resizeLast=0;collapsible=1;marginBottom=0;" parent="WIyWlLk6GJQsqaUBKTNV-1" vertex="1">
                    <mxGeometry x="420" y="430" width="260" height="60" as="geometry"/>
                </mxCell>
                <mxCell id="McWUHRjocxMPljA4yQ9H-102" value="" style="line;strokeWidth=1;fillColor=none;align=left;verticalAlign=middle;spacingTop=-1;spacingLeft=3;spacingRight=3;rotatable=0;labelPosition=right;points=[];portConstraint=eastwest;" parent="McWUHRjocxMPljA4yQ9H-100" vertex="1">
                    <mxGeometry y="26" width="260" height="8" as="geometry"/>
                </mxCell>
                <mxCell id="McWUHRjocxMPljA4yQ9H-103" value="+ AddTaxToItem(ITextFormatter item) : double" style="text;strokeColor=none;fillColor=none;align=left;verticalAlign=top;spacingLeft=4;spacingRight=4;overflow=hidden;rotatable=0;points=[[0,0.5],[1,0.5]];portConstraint=eastwest;" parent="McWUHRjocxMPljA4yQ9H-100" vertex="1">
                    <mxGeometry y="34" width="260" height="26" as="geometry"/>
                </mxCell>
                <mxCell id="McWUHRjocxMPljA4yQ9H-131" value="" style="edgeStyle=orthogonalEdgeStyle;rounded=0;orthogonalLoop=1;jettySize=auto;html=1;" parent="WIyWlLk6GJQsqaUBKTNV-1" source="McWUHRjocxMPljA4yQ9H-106" target="McWUHRjocxMPljA4yQ9H-95" edge="1">
                    <mxGeometry relative="1" as="geometry"/>
                </mxCell>
                <mxCell id="McWUHRjocxMPljA4yQ9H-106" value="FlatTax" style="swimlane;fontStyle=1;align=center;verticalAlign=top;childLayout=stackLayout;horizontal=1;startSize=26;horizontalStack=0;resizeParent=1;resizeParentMax=0;resizeLast=0;collapsible=1;marginBottom=0;" parent="WIyWlLk6GJQsqaUBKTNV-1" vertex="1">
                    <mxGeometry x="700" y="430" width="260" height="60" as="geometry"/>
                </mxCell>
                <mxCell id="McWUHRjocxMPljA4yQ9H-108" value="" style="line;strokeWidth=1;fillColor=none;align=left;verticalAlign=middle;spacingTop=-1;spacingLeft=3;spacingRight=3;rotatable=0;labelPosition=right;points=[];portConstraint=eastwest;" parent="McWUHRjocxMPljA4yQ9H-106" vertex="1">
                    <mxGeometry y="26" width="260" height="8" as="geometry"/>
                </mxCell>
                <mxCell id="McWUHRjocxMPljA4yQ9H-109" value="+ AddTaxToItem(ITextFormatter item) : double" style="text;strokeColor=none;fillColor=none;align=left;verticalAlign=top;spacingLeft=4;spacingRight=4;overflow=hidden;rotatable=0;points=[[0,0.5],[1,0.5]];portConstraint=eastwest;" parent="McWUHRjocxMPljA4yQ9H-106" vertex="1">
                    <mxGeometry y="34" width="260" height="26" as="geometry"/>
                </mxCell>
                <mxCell id="McWUHRjocxMPljA4yQ9H-120" value="App" style="swimlane;fontStyle=1;align=center;verticalAlign=top;childLayout=stackLayout;horizontal=1;startSize=26;horizontalStack=0;resizeParent=1;resizeParentMax=0;resizeLast=0;collapsible=1;marginBottom=0;" parent="WIyWlLk6GJQsqaUBKTNV-1" vertex="1">
                    <mxGeometry x="420" y="10" width="160" height="68" as="geometry"/>
                </mxCell>
                <mxCell id="McWUHRjocxMPljA4yQ9H-121" value="+ shopCart : Cart&#10;+ allItems : List&lt;StoreItem&gt;" style="text;strokeColor=none;fillColor=none;align=left;verticalAlign=top;spacingLeft=4;spacingRight=4;overflow=hidden;rotatable=0;points=[[0,0.5],[1,0.5]];portConstraint=eastwest;" parent="McWUHRjocxMPljA4yQ9H-120" vertex="1">
                    <mxGeometry y="26" width="160" height="34" as="geometry"/>
                </mxCell>
                <mxCell id="McWUHRjocxMPljA4yQ9H-122" value="" style="line;strokeWidth=1;fillColor=none;align=left;verticalAlign=middle;spacingTop=-1;spacingLeft=3;spacingRight=3;rotatable=0;labelPosition=right;points=[];portConstraint=eastwest;" parent="McWUHRjocxMPljA4yQ9H-120" vertex="1">
                    <mxGeometry y="60" width="160" height="8" as="geometry"/>
                </mxCell>
                <mxCell id="McWUHRjocxMPljA4yQ9H-126" value="StoreItemDataPrinter" style="swimlane;fontStyle=1;align=center;verticalAlign=top;childLayout=stackLayout;horizontal=1;startSize=26;horizontalStack=0;resizeParent=1;resizeParentMax=0;resizeLast=0;collapsible=1;marginBottom=0;" parent="WIyWlLk6GJQsqaUBKTNV-1" vertex="1">
                    <mxGeometry x="790" y="551" width="180" height="98" as="geometry"/>
                </mxCell>
                <mxCell id="McWUHRjocxMPljA4yQ9H-127" value="+ itemToPrint : ITextFormatter&#10;+ taxToAdd : IAddTax" style="text;strokeColor=none;fillColor=none;align=left;verticalAlign=top;spacingLeft=4;spacingRight=4;overflow=hidden;rotatable=0;points=[[0,0.5],[1,0.5]];portConstraint=eastwest;" parent="McWUHRjocxMPljA4yQ9H-126" vertex="1">
                    <mxGeometry y="26" width="180" height="34" as="geometry"/>
                </mxCell>
                <mxCell id="McWUHRjocxMPljA4yQ9H-128" value="" style="line;strokeWidth=1;fillColor=none;align=left;verticalAlign=middle;spacingTop=-1;spacingLeft=3;spacingRight=3;rotatable=0;labelPosition=right;points=[];portConstraint=eastwest;" parent="McWUHRjocxMPljA4yQ9H-126" vertex="1">
                    <mxGeometry y="60" width="180" height="8" as="geometry"/>
                </mxCell>
                <mxCell id="McWUHRjocxMPljA4yQ9H-129" value="+ PrintData() : String" style="text;strokeColor=none;fillColor=none;align=left;verticalAlign=top;spacingLeft=4;spacingRight=4;overflow=hidden;rotatable=0;points=[[0,0.5],[1,0.5]];portConstraint=eastwest;" parent="McWUHRjocxMPljA4yQ9H-126" vertex="1">
                    <mxGeometry y="68" width="180" height="30" as="geometry"/>
                </mxCell>
                <mxCell id="McWUHRjocxMPljA4yQ9H-133" style="edgeStyle=orthogonalEdgeStyle;rounded=0;orthogonalLoop=1;jettySize=auto;html=1;entryX=-0.022;entryY=0.183;entryDx=0;entryDy=0;entryPerimeter=0;" parent="WIyWlLk6GJQsqaUBKTNV-1" target="McWUHRjocxMPljA4yQ9H-87" edge="1">
                    <mxGeometry relative="1" as="geometry">
                        <mxPoint x="352" y="270" as="sourcePoint"/>
                        <Array as="points">
                            <mxPoint x="380" y="270"/>
                            <mxPoint x="380" y="204"/>
                            <mxPoint x="420" y="204"/>
                            <mxPoint x="420" y="185"/>
                        </Array>
                    </mxGeometry>
                </mxCell>
                <mxCell id="McWUHRjocxMPljA4yQ9H-136" value="Cart" style="swimlane;fontStyle=1;align=center;verticalAlign=top;childLayout=stackLayout;horizontal=1;startSize=26;horizontalStack=0;resizeParent=1;resizeParentMax=0;resizeLast=0;collapsible=1;marginBottom=0;" parent="WIyWlLk6GJQsqaUBKTNV-1" vertex="1">
                    <mxGeometry x="730" y="680" width="240" height="110" as="geometry"/>
                </mxCell>
                <mxCell id="McWUHRjocxMPljA4yQ9H-137" value="- storeItemsToPurchase : List&lt;StoreItem&gt;&#10;# total : double" style="text;strokeColor=none;fillColor=none;align=left;verticalAlign=top;spacingLeft=4;spacingRight=4;overflow=hidden;rotatable=0;points=[[0,0.5],[1,0.5]];portConstraint=eastwest;" parent="McWUHRjocxMPljA4yQ9H-136" vertex="1">
                    <mxGeometry y="26" width="240" height="34" as="geometry"/>
                </mxCell>
                <mxCell id="McWUHRjocxMPljA4yQ9H-138" value="" style="line;strokeWidth=1;fillColor=none;align=left;verticalAlign=middle;spacingTop=-1;spacingLeft=3;spacingRight=3;rotatable=0;labelPosition=right;points=[];portConstraint=eastwest;" parent="McWUHRjocxMPljA4yQ9H-136" vertex="1">
                    <mxGeometry y="60" width="240" height="8" as="geometry"/>
                </mxCell>
                <mxCell id="McWUHRjocxMPljA4yQ9H-139" value="+ AddToCart(StoreItem itemToAdd) : void&#10;+ PrintItems() : void" style="text;strokeColor=none;fillColor=none;align=left;verticalAlign=top;spacingLeft=4;spacingRight=4;overflow=hidden;rotatable=0;points=[[0,0.5],[1,0.5]];portConstraint=eastwest;" parent="McWUHRjocxMPljA4yQ9H-136" vertex="1">
                    <mxGeometry y="68" width="240" height="42" as="geometry"/>
                </mxCell>
                <mxCell id="rfEXJWrHKDUlgpVD4WG_-1" value="" style="rounded=1;whiteSpace=wrap;html=1;align=center;" parent="WIyWlLk6GJQsqaUBKTNV-1" vertex="1">
                    <mxGeometry x="30" y="20" width="300" height="90" as="geometry"/>
                </mxCell>
                <mxCell id="rfEXJWrHKDUlgpVD4WG_-2" value="&lt;i&gt;&lt;u&gt;Legend&lt;/u&gt;&lt;/i&gt;" style="text;html=1;strokeColor=none;fillColor=none;align=center;verticalAlign=middle;whiteSpace=wrap;rounded=0;" parent="WIyWlLk6GJQsqaUBKTNV-1" vertex="1">
                    <mxGeometry x="155" y="20" width="40" height="20" as="geometry"/>
                </mxCell>
                <mxCell id="rfEXJWrHKDUlgpVD4WG_-7" value="Class name&lt;br&gt;Attributes - name :&amp;nbsp; type&lt;br&gt;Operations - method name(parameters) : return type&lt;br&gt;(Symbol before the attribute/method indicates visibility)&lt;br&gt;public (+) , protected (#) , private (-)" style="text;html=1;strokeColor=none;fillColor=none;align=left;verticalAlign=middle;whiteSpace=wrap;rounded=0;" parent="WIyWlLk6GJQsqaUBKTNV-1" vertex="1">
                    <mxGeometry x="35" y="50" width="295" height="40" as="geometry"/>
                </mxCell>
                <mxCell id="rfEXJWrHKDUlgpVD4WG_-9" style="edgeStyle=orthogonalEdgeStyle;rounded=0;orthogonalLoop=1;jettySize=auto;html=1;exitX=0.5;exitY=1;exitDx=0;exitDy=0;" parent="WIyWlLk6GJQsqaUBKTNV-1" source="rfEXJWrHKDUlgpVD4WG_-7" target="rfEXJWrHKDUlgpVD4WG_-7" edge="1">
                    <mxGeometry relative="1" as="geometry"/>
                </mxCell>
                <mxCell id="0" style="edgeStyle=orthogonalEdgeStyle;rounded=0;orthogonalLoop=1;jettySize=auto;html=1;entryX=1.01;entryY=0.283;entryDx=0;entryDy=0;entryPerimeter=0;" edge="1" parent="WIyWlLk6GJQsqaUBKTNV-1" source="McWUHRjocxMPljA4yQ9H-74" target="McWUHRjocxMPljA4yQ9H-87">
                    <mxGeometry relative="1" as="geometry"/>
                </mxCell>
            </root>
        </mxGraphModel>
    </diagram>
</mxfile>